<?xml version="1.0" encoding="UTF-8"?>
<!DOCTYPE svg PUBLIC "-//W3C//DTD SVG 1.1//EN" "http://www.w3.org/Graphics/SVG/1.1/DTD/svg11.dtd">
<!-- Creator: CorelDRAW 2017 -->
<svg xmlns="http://www.w3.org/2000/svg" xml:space="preserve" width="10in" height="10in" version="1.1" style="shape-rendering:geometricPrecision; text-rendering:geometricPrecision; image-rendering:optimizeQuality; fill-rule:evenodd; clip-rule:evenodd"
viewBox="0 0 10000 10000"
 xmlns:xlink="http://www.w3.org/1999/xlink">
 <defs>
  <style type="text/css">
   <![CDATA[
    .str6 {stroke:#181818;stroke-width:14.6496;stroke-linejoin:round}
    .str2 {stroke:#181818;stroke-width:3;stroke-linejoin:round}
    .str5 {stroke:#181818;stroke-width:3;stroke-linejoin:round}
    .str4 {stroke:#8F00FF;stroke-width:3;stroke-linejoin:round}
    .str1 {stroke:#A8A8A8;stroke-width:3;stroke-linejoin:round}
    .str0 {stroke:#F0F0F0;stroke-width:3;stroke-linejoin:round}
    .str3 {stroke:#FFCF00;stroke-width:3;stroke-linejoin:round}
    .fil5 {fill:none}
    .fil2 {fill:#181818}
    .fil4 {fill:#8F00FF}
    .fil1 {fill:#A8A8A8}
    .fil0 {fill:#F0F0F0}
    .fil3 {fill:#FFCF00}
   ]]>
  </style>
 </defs>
 <g id="Layer_x0020_1">
  <metadata id="CorelCorpID_0Corel-Layer"/>
  <rect class="fil0 str0" x="2275" y="4082" width="5547" height="4487"/>
  <polygon class="fil1 str1" points="5025,6025 5025,5957 5025,5942 5064,5898 5112,5928 5142,5928 5156,6030 6030,5117 6426,4848 6612,4814 6802,4819 6890,4873 6924,4980 6895,5146 6748,5557 6572,5986 6450,6152 6362,6230 6226,6323 6143,6357 5791,6396 6035,6631 6094,6719 6128,6846 6167,7129 6109,7173 6074,7270 6074,7309 6026,7344 5947,7427 5918,7451 5781,7451 5635,7432 5586,7363 5547,7378 5488,7344 5322,7124 5171,6665 5156,7295 5117,7339 5112,7397 5064,7383 5064,7314 4995,7231 5039,6650 5015,6626 4966,6880 4912,7085 4819,7236 4790,7231 4727,7285 4663,7358 4619,7358 4517,7432 4365,7432 4238,7397 4204,7324 4151,7319 4097,7168 4004,7119 3985,7065 4014,6968 4107,6655 4224,6484 4375,6377 4194,6343 3950,6294 3804,6172 3662,6035 3526,5742 3355,5327 3267,4946 3272,4839 3316,4790 3423,4770 3516,4775 3745,4829 3926,4936 4317,5264 "/>
  <polygon class="fil2 str2" points="4951,5874 4951,5791 5005,5732 5029,5727 5069,5776 5098,5874 5425,5498 5957,4966 6192,4800 6353,4697 6441,4682 6641,4663 6729,4668 6817,4722 6851,4829 6841,4946 6719,5303 6631,5473 6499,5835 6377,6001 6192,6152 6011,6211 5718,6245 5762,6274 5860,6343 5962,6479 6021,6567 6050,6748 6099,6938 6065,7021 6035,7021 6001,7158 5918,7197 5874,7275 5757,7309 5415,7192 5249,6973 5195,6846 5098,6514 5083,7143 5059,7148 5044,7187 5039,7222 5039,7246 5010,7256 4990,7231 4986,7212 4990,7163 4966,7148 4937,7139 4922,7080 4966,6499 4927,6616 4839,6934 4785,7017 4653,7134 4478,7256 4317,7275 4077,7168 4024,7017 3931,6968 3965,6689 4033,6504 4107,6377 4238,6255 4302,6225 3877,6142 3770,6059 3589,5884 3452,5591 3223,4966 3189,4726 3242,4639 3350,4619 3555,4639 3672,4678 3814,4751 3911,4819 4243,5112 4473,5337 4761,5693 "/>
  <polygon class="fil3 str3" points="5479,6235 5640,6260 5845,6357 5933,6445 5933,6489 5840,6523 5938,6577 5972,6660 5987,6724 5982,6724 5850,6709 5947,6767 6021,6831 5996,6919 5923,6919 5884,6870 5923,6977 5933,7075 5869,7051 5855,7207 5762,7202 5698,7129 5659,7207 5620,7197 5562,7046 5488,6709 5391,6523 5298,6401 5264,6304 5303,6196 "/>
  <polygon class="fil3 str3" points="4771,6206 4634,6201 4458,6245 4277,6308 4116,6440 4209,6518 4111,6572 4063,6719 4199,6704 4102,6763 4028,6826 4053,6914 4165,6865 4111,7002 4180,7046 4190,7173 4287,7197 4351,7124 4356,7197 4458,7168 4497,7007 4658,6518 4785,6299 "/>
  <polygon class="fil4 str4" points="5342,6094 5532,6108 5659,6089 5860,6069 5938,6094 6001,6113 5982,6103 6109,6020 6153,5986 6187,6035 6094,6084 5987,6103 5879,6147 5728,6177 5484,6177 5366,6152 "/>
  <polygon class="fil4 str4" points="4707,6074 4629,6084 4512,6089 4268,6055 4190,6050 4107,6074 4014,6094 3941,6001 3892,5967 3858,6016 3950,6064 3955,6064 4170,6128 4263,6152 4351,6157 4566,6157 4678,6133 "/>
  <polygon class="fil4 str4" points="5576,5683 5679,5703 5684,5698 5796,5723 5904,5669 6021,5630 6236,5649 6240,5732 6138,5845 5952,5781 5835,5762 5884,5840 5972,5820 6113,5918 6070,5947 6055,5928 6055,5932 5982,5898 5904,5908 5806,5952 5777,5859 5777,5854 5747,5840 5669,5732 5430,5825 5479,5766 "/>
  <polygon class="fil4 str4" points="4419,5659 4419,5747 4317,5679 4312,5674 4199,5698 4107,5659 3931,5610 3760,5625 3784,5747 3999,5776 4043,5757 4160,5737 4111,5815 3931,5835 3882,5893 3926,5923 3941,5903 3941,5908 4014,5874 4170,5903 4219,5835 4219,5830 4248,5815 4356,5776 4429,5820 4566,5801 "/>
  <polygon class="fil4 str4" points="6279,5576 6304,5513 6304,5483 6231,5473 6192,5488 6192,5493 6177,5561 6138,5493 "/>
  <polygon class="fil4 str4" points="3716,5557 3692,5464 3784,5425 3804,5469 3818,5542 3858,5473 3882,5532 "/>
  <polygon class="fil4 str4" points="5860,5137 5967,5019 6060,4951 6089,4990 5982,5088 6284,4956 6372,4907 6558,4863 6558,4897 6455,4946 6284,5029 6070,5083 5918,5117 5767,5215 5713,5273 "/>
  <polygon class="fil4 str4" points="4209,5234 4155,5161 4097,5088 3975,4975 3921,4941 3955,4975 3989,5010 3989,5014 3877,4971 3999,5078 3804,4980 3755,4961 3609,4897 3526,4892 3423,4853 3423,4888 3526,4936 3599,4956 3604,4956 3696,5019 3809,5039 3911,5073 4063,5107 4214,5205 4268,5264 "/>
  <polygon class="fil4 str4" points="5425,6645 5694,6592 5801,6567 5879,6606 5825,6709 5879,6753 5982,6807 6021,6885 5947,6894 5879,6924 5850,6977 5718,6977 5640,7075 5537,7060 5523,6885 5493,6728 "/>
  <polygon class="fil4 str4" points="4546,6592 4263,6567 4170,6577 4131,6621 4199,6719 4058,6836 4155,6924 4209,6987 4263,6973 4341,6968 4390,7002 4522,7026 4522,6850 4531,6797 4575,6719 4610,6738 4629,6601 "/>
  <polygon class="fil2 str2" points="5718,6601 5703,6626 5767,6704 5889,6694 5894,6601 5801,6562 "/>
  <polygon class="fil2 str2" points="4317,6587 4331,6611 4331,6616 4268,6689 4146,6680 4136,6660 4141,6587 4253,6543 "/>
  <polygon class="fil2 str2" points="5767,6782 5767,6797 5781,6821 5869,6850 5913,6865 5933,6831 5928,6811 5889,6792 5747,6802 "/>
  <polygon class="fil2 str2" points="4307,6777 4307,6792 4263,6831 4204,6846 4199,6846 4160,6860 4146,6807 4204,6782 4302,6777 "/>
  <polygon class="fil2 str2" points="5708,6821 5708,6831 5723,6821 5733,6821 5742,6836 5791,6880 5791,6924 5791,6953 5786,6953 5772,6958 5733,6938 5713,6870 5689,6792 5718,6758 "/>
  <polygon class="fil2 str2" points="4375,6841 4375,6850 4360,6841 4356,6841 4297,6899 4297,6973 4302,6973 4336,6977 4356,6958 4356,6953 4380,6865 4370,6777 4360,6811 "/>
  <polygon class="fil2 str2" points="5586,6875 5586,6880 5552,6919 5581,6963 5586,6963 5625,6982 5635,6992 5645,7002 5630,6914 "/>
  <polygon class="fil2 str2" points="4478,6860 4512,6929 4492,6977 4453,7021 4439,7021 4429,7036 4419,7051 4414,7021 4434,6919 4512,6846 "/>
  <polyline class="fil5 str5" points="4663,6562 4639,6577 4629,6592 4610,6606 4610,6611 4595,6645 4590,6714 4590,6724 4585,6797 4566,6855 4546,6919 4546,7021 4536,7021 4536,7080 4551,7036 "/>
  <polyline class="fil5 str5" points="5249,6265 5860,6509 5923,6582 "/>
  <polyline class="fil5 str5" points="5679,6450 5811,6601 5908,6689 5996,6811 "/>
  <polyline class="fil5 str5" points="5542,6684 5601,6816 5654,6948 5689,7114 5703,7212 "/>
  <polyline class="fil5 str5" points="5625,6665 5703,6753 5767,6865 5811,6929 5816,6934 5864,6982 5938,7153 "/>
  <polyline class="fil5 str5" points="5650,6538 5694,6562 5703,6562 5742,6611 5860,6767 6006,6997 "/>
  <polyline class="fil5 str5" points="4717,6245 4614,6313 4502,6421 4492,6416 4346,6455 4219,6489 4111,6548 4077,6494 "/>
  <polyline class="fil5 str5" points="4478,6421 4375,6479 4292,6562 4209,6650 4092,6767 "/>
  <polyline class="fil5 str5" points="4380,6655 4268,6753 4234,6782 4204,6816 4190,6846 4170,6860 4126,6899 4111,6909 4107,6938 4102,6948 "/>
  <polyline class="fil5 str5" points="4443,6660 4424,6704 4380,6758 4331,6836 4312,6865 4287,6890 4248,6948 4175,7114 "/>
  <polyline class="fil5 str5" points="4473,6821 4409,6924 4404,6948 4370,7124 "/>
  <path class="fil5 str6" d="M4941 5074c-51,117 -78,243 -78,371 0,128 27,254 78,371"/>
  <path class="fil5 str6" d="M5074 5810c51,-116 78,-241 78,-368 0,-127 -27,-253 -78,-369"/>
 </g>
</svg>
